<svg width="1132" height="828">

 <g>
  <title>Layer 1</title>
  <g id="g15"  >
   <path fill="#e5233d" stroke-width="0.64001" d="m479.96396,258.72742c-4.36058,0 -4.36152,-0.0001 -8.96106,5.42976c-4.59954,5.42987 -4.59772,5.42877 -4.59772,10.87906c0,2.99766 0.2041,5.44929 0.45704,5.44929c0.25293,0 1.9808,-1.49998 3.8399,-3.33598l3.38285,-3.33989l0,22.53937l0,22.53938l5.11726,0l5.12117,0l0,-30.08245l0,-30.07854l-4.35944,0zm40.06697,2.55863c-2.42526,0 -2.42582,0.00047 -2.42582,12.48064c0,12.48017 -0.002,12.48064 2.23831,12.48064c2.24003,0 2.23922,-0.002 2.30472,-5.92195l0.0664,-5.91806l1.93753,5.91806c1.93392,5.91388 1.93742,5.92195 4.0938,5.92195c2.15863,0 2.16019,-0.00047 2.16019,-12.48064c0,-12.48017 -0.002,-12.48064 -1.9219,-12.48064c-1.92003,0 -1.92028,-0.002 -1.97659,5.91805l-0.0547,5.92196l-2.00003,-5.92196c-1.99848,-5.92008 -1.99667,-5.91805 -4.42193,-5.91805l0.00002,0zm18.88306,0.0196c-5.60393,0.0372 -6.58993,1.95156 -6.58993,12.79314c0,8.56334 0.60464,10.61886 3.50395,11.91423c2.53781,1.13385 6.01615,0.54072 7.95324,-1.35939c1.364,-1.33796 1.56664,-2.21652 1.83987,-7.89074c0.58133,-12.07251 -0.90248,-15.49574 -6.70713,-15.45724zm0.12891,4.14068c1.21431,0 1.28126,0.42793 1.28126,8.31261c0,7.41219 -0.12054,8.33477 -1.12111,8.52747c-1.63606,0.31508 -1.822,-0.73452 -1.62111,-9.19935c0.16982,-7.15572 0.26252,-7.64073 1.46096,-7.64073zm34.88329,31.5395l0,12.55095c0,12.55013 -0.002,12.55096 2.23832,12.55096c2.24003,0 2.23854,-0.00062 2.28909,-4.64069l0.0508,-4.64069l1.60549,4.64069c1.60283,4.64006 1.60273,4.64069 4.10943,4.64069c1.37869,0 2.49109,-0.21647 2.47269,-0.48048c-0.0182,-0.264 -0.82437,-2.61368 -1.78909,-5.22273c-1.75402,-4.74372 -1.75243,-4.74375 -0.28516,-6.21102c1.22566,-1.22565 1.46877,-2.14592 1.46877,-5.58601c0,-6.0155 -1.0152,-7.03855 -7.29306,-7.35557l-4.86728,-0.2461zm-35.60205,0.0664c-1.6897,0.005 -3.33724,0.55204 -4.42975,1.64455c-1.5269,1.5269 -1.57034,1.83788 -1.57034,11.07828c0,9.85028 0.20045,10.70841 2.87895,12.25017c1.91971,1.105 6.6309,0.43952 8.23449,-1.16408c1.27661,-1.27661 1.3672,-2.01619 1.3672,-11.00796c0,-9.63777 -0.001,-9.63914 -1.79689,-11.18375c-1.26223,-1.08572 -2.99397,-1.62209 -4.68366,-1.61721zm-16.9768,0.0742c-3.74455,0 -3.74224,0.00047 -3.74224,12.48064c0,12.48018 -0.001,12.48064 2.55863,12.48064c2.56004,0 2.55863,-0.00015 2.55863,-4.16021c0,-4.16006 0.00013,-4.16021 2.46097,-4.16021c3.62837,0 4.80844,-1.6325 5.11726,-7.09776c0.43446,-7.68891 -1.30641,-9.5431 -8.95325,-9.5431zm26.85584,0c-1.34094,0 -2.43753,0.19886 -2.43753,0.44141c0,0.24254 1.04079,5.87224 2.31643,12.5119c2.31936,12.0721 2.32197,12.07199 4.94538,11.87907c2.62341,-0.19293 2.62283,-0.19391 4.67976,-10.75406c2.71002,-13.91327 2.71133,-14.07832 0.008,-14.07832c-2.13108,0 -2.13226,-0.00016 -3.34771,7.83995l-1.21484,7.83989l-1.25783,-7.83995c-1.25549,-7.84011 -1.25338,-7.83995 -3.69145,-7.83995l-0.00021,0.00006zm13.56269,0l0,12.48064l0,12.48064l5.11726,0c5.12007,0 5.12116,-0.002 5.12116,-1.9219c0,-1.8489 -0.10558,-1.91799 -2.87895,-1.91799c-2.88003,0 -2.87894,-0.003 -2.87894,-3.20317c0,-3.12892 0.0406,-3.19927 1.91799,-3.19927c1.76765,0 1.9219,-0.17606 1.9219,-2.23831c0,-2.06225 -0.15426,-2.24222 -1.9219,-2.24222c-1.8489,0 -1.91799,-0.10558 -1.91799,-2.87894c0,-2.88004 -0.001,-2.87895 2.87894,-2.87895c2.86485,0 2.87895,-0.014 2.87895,-2.24222c0,-2.24003 -0.001,-2.23831 -5.12116,-2.23831l-5.11726,0zm31.35981,0c-5.76008,0 -5.7618,-0.002 -5.7618,2.23831c0,1.9627 0.19966,2.24222 1.60158,2.24222c1.60002,0 1.59768,-0.002 1.59768,10.23842c0,10.24015 0.002,10.24233 2.24222,10.24233c2.24003,0 2.23831,-0.002 2.23831,-10.24233c0,-10.24014 0.002,-10.23842 1.9219,-10.23842c1.76765,0 1.918,-0.17996 1.918,-2.24222c0,-2.24003 0.002,-2.23831 -5.75789,-2.23831zm8.83215,0c-2.09442,0 -2.46598,0.1898 -2.19925,1.12111c0.17644,0.61601 1.20588,4.03089 2.28519,7.58995c1.45384,4.79413 1.96097,7.73737 1.96097,11.35953c0,4.88913 -0.001,4.89069 2.55862,4.89069c2.56004,0 2.56254,-0.002 2.56254,-4.89069c0,-3.62216 0.50713,-6.5654 1.96096,-11.35953c1.07931,-3.55906 2.10875,-6.97394 2.28519,-7.58995c0.26311,-0.91863 -0.0953,-1.12111 -1.9844,-1.12111c-1.27677,0 -2.41791,0.35732 -2.56254,0.80079c-0.1435,0.44001 -0.66245,2.24003 -1.15236,4.00006c-0.89074,3.20004 -0.89035,3.19926 -2.04299,-0.80079c-1.15263,-4.00006 -1.1531,-4.00006 -3.67193,-4.00006zm-63.02822,3.98834c0.96644,0.17624 1.44084,2.33876 1.62112,6.95712c0.12372,3.16931 0.0363,6.7553 -0.1914,7.96886c-0.39424,2.10149 -1.9323,2.97403 -3.12895,1.77737c-0.23467,-0.23466 -0.42579,-3.79579 -0.42579,-7.91807c0,-5.97305 0.20161,-7.66364 0.98829,-8.31653c0.43934,-0.36462 0.81459,-0.5275 1.13674,-0.46875l-0.00001,0zm-14.92598,0.49219c1.14654,0 1.28127,0.42499 1.28127,4.0899c0,3.14059 -0.23468,4.18235 -1.01174,4.48053c-0.55679,0.21368 -1.13404,0.39063 -1.28126,0.39063c-0.14723,0 -0.26954,-2.01649 -0.26954,-4.48053c0,-4.05339 0.12316,-4.48053 1.28127,-4.48053zm55.66874,0c1.47164,0 2.28485,2.34307 1.66799,4.80085c-0.25929,1.03307 -0.84941,1.59768 -1.66799,1.59768c-1.09473,0 -1.26565,-0.43616 -1.26565,-3.19927c0,-2.76311 0.17093,-3.19926 1.26565,-3.19926zm90.69266,69.11027c-4.53338,0.0172 -8.75792,3.63252 -8.75792,8.66028c0,3.33217 2.81262,6.96608 6.17194,7.97277c2.44816,0.73371 2.17191,0.73344 4.74227,0.0196c7.10568,-1.97396 8.56256,-11.58798 2.33205,-15.38694c-1.43478,-0.87484 -2.9772,-1.27137 -4.48834,-1.26564l0,-0.00007zm-181.96736,0.0156c-5.55973,0.008 -8.49211,3.01429 -8.53137,8.74622c-0.0267,3.8928 1.97147,6.84885 5.30867,7.84777c1.11483,0.33367 3.00771,0.45814 4.20319,0.27734c4.61344,-0.69764 7.10556,-3.82946 7.10556,-8.92197c0,-2.61654 -0.30792,-3.29234 -2.48441,-5.46883c-2.20777,-2.20777 -2.83356,-2.4843 -5.60164,-2.4805l0,-0.00003zm116.93131,4.47272c-2.51103,0 -5.76255,1.82617 -7.06651,3.9649c-2.52999,4.1497 -0.8899,9.88113 3.35552,11.72673c2.63621,1.14604 3.84734,1.15848 6.46103,0.0664c4.46315,-1.86483 6.28879,-7.34687 3.95318,-11.86345c-0.98371,-1.90227 -4.41165,-3.89458 -6.70322,-3.89458zm-47.35613,0.10547c-3.69581,0.13262 -7.14874,2.90784 -7.53526,7.39463c-0.32218,3.73987 1.37136,6.84837 4.461,8.19152c2.63621,1.14604 3.84734,1.15848 6.46103,0.0664c5.19555,-2.17084 6.65296,-8.58223 2.91801,-12.83612c-1.77956,-2.0268 -4.08729,-2.89601 -6.30478,-2.81644l0,0.00001zm-75.50495,14.71114c-7.11658,0.3015 -9.86857,1.69917 -12.48454,5.23444c-1.27621,1.72469 -1.34303,2.62255 -1.41799,19.19949c-0.0786,17.3909 -0.079,17.39272 -3.41411,34.87158c-1.83429,9.61336 -3.17498,17.89191 -2.98051,18.3987c0.41952,1.09325 2.68766,1.22929 3.32426,0.1992c0.24556,-0.39733 2.0968,-9.46615 4.11334,-20.15264c2.01654,-10.68649 4.06413,-19.90738 4.55085,-20.49246c0.64917,-0.78039 0.96838,-4.06497 1.20314,-12.3283c0.19978,-7.03237 0.56138,-11.20518 0.96095,-11.10562c0.41017,0.10222 0.75586,11.32789 0.96095,31.25824c0.32,31.09788 0.32113,31.09778 1.83205,32.32077c1.95494,1.58264 3.97745,1.54854 6.0704,-0.0976c1.67657,-1.3188 1.67792,-1.3185 1.84768,-19.67997c0.14625,-15.81917 0.30183,-18.35962 1.12893,-18.35962c0.82709,0 0.98267,2.54045 1.12892,18.35962c0.16976,18.36147 0.17,18.36193 1.91018,19.73075c2.09116,1.6449 5.01744,1.33128 6.72275,-0.72267c1.03273,-1.24384 1.1172,-3.76653 1.1172,-32.37154c0,-24.53314 0.16814,-30.96808 0.8008,-30.75824c0.58237,0.19316 0.88815,3.29882 1.1211,11.41422c0.17601,6.13147 0.57295,11.53909 0.88283,12.0197c0.38651,0.59951 1.40622,0.78205 3.25004,0.57423c2.68766,-0.30294 2.68888,-0.30505 6.08602,6.16414c3.39715,6.46918 3.3988,6.47076 1.39065,13.66034c-1.10448,3.95428 -2.01175,7.33785 -2.01175,7.51965c0,0.1818 0.86589,0.32812 1.9219,0.32812c1.92003,0 1.92191,0.001 1.92191,6.05869c0,5.33391 0.14434,6.13546 1.23439,6.71883c1.83708,0.98317 3.09432,0.81199 4.5235,-0.61719c1.07923,-1.07923 1.28127,-2.13213 1.28127,-6.71885c0,-3.20005 0.26415,-5.44148 0.64063,-5.44148c0.38159,0 0.63673,2.447 0.63673,6.05869c0,5.33391 0.14824,6.13546 1.2383,6.71883c1.83708,0.98317 3.09431,0.81199 4.5235,-0.61719c1.07922,-1.07923 1.28126,-2.13213 1.28126,-6.71885c0,-5.37608 0.0164,-5.44148 1.59768,-5.44148c0.88001,0 1.60158,-0.30082 1.60158,-0.67189c0,-0.37106 -0.72157,-3.23736 -1.60158,-6.36726c-0.88001,-3.12991 -1.59768,-6.56954 -1.59768,-7.64465c0,-1.17068 1.34715,-4.35739 3.35942,-7.94541c2.79706,-4.98737 3.52908,-5.88506 4.37897,-5.34774c0.56153,0.35501 1.76288,0.46155 2.668,0.23438c1.87156,-0.46973 2.46149,-1.81853 5.64852,-12.89471c2.18919,-7.6083 2.79076,-9.11246 3.28911,-8.2423c0.17708,0.30921 -1.74457,8.04725 -4.26959,17.19946l-4.58991,16.64085l4.35553,0.18741l4.35943,0.1874l0,13.05878c0,12.76602 0.031,13.07678 1.4219,14.05098c1.80804,1.26639 3.66859,1.26639 5.47664,0c1.391,-0.97432 1.42189,-1.28336 1.42189,-14.07834c0,-11.20347 0.13891,-13.0861 0.96095,-13.0861c0.82135,0 0.95705,1.84968 0.95705,12.80096c0,11.94682 0.0866,12.88364 1.28127,14.07831c1.72977,1.72977 4.20671,1.6137 6.10946,-0.28906c1.56073,-1.56072 1.57033,-1.65412 1.57033,-14.08224c0,-12.50925 -0.00001,-12.50797 4.20318,-12.50797c3.70517,0 4.16533,-0.1338 3.86724,-1.12112c-1.96031,-6.49292 -8.71105,-31.74624 -8.71105,-32.59029c0,-2.53339 1.28696,0.61561 3.83208,9.39075c1.48037,5.10407 3.13835,9.78648 3.68755,10.40249c2.12908,2.38806 5.92196,0.70584 5.92196,-2.62504c0,-0.95161 -1.46536,-6.46636 -3.25786,-12.25798c-5.38381,-17.39526 -4.49187,-16.64086 -19.63308,-16.64086c-11.19828,0.00001 -11.19969,0.002 -13.30878,2.23832c-1.2023,1.2748 -2.53753,3.68411 -3.10551,5.60164c-5.42625,18.3193 -5.83043,19.3524 -7.64855,19.56668c-1.33815,0.1577 -2.28713,1.08716 -4.11333,4.02349c-1.30574,2.09947 -2.95706,3.96589 -3.67193,4.14849c-0.71487,0.18261 -3.16013,0.24352 -5.42976,0.13672c-4.1266,-0.19418 -4.12706,-0.19124 -6.73838,-4.0313c-1.92158,-2.82577 -3.05271,-3.89272 -4.29302,-4.03912c-1.68552,-0.19894 -1.6859,-0.19868 -1.88284,-12.85174c-0.19694,-12.65307 -0.1991,-12.65524 -1.99222,-15.00411c-2.98213,-3.90643 -4.775,-4.49095 -14.69551,-4.78913c-3.49795,-0.10515 -6.35449,-0.12395 -8.72669,-0.0234l0,0.00012zm182.47519,0.0156c-6.22114,0.22733 -9.07834,1.19151 -11.27359,3.38676c-1.27932,1.27934 -2.40356,3.27136 -2.8477,5.03523c-0.92905,3.68981 -0.98952,26.27853 -0.0742,27.98867c0.75945,1.41904 4.3588,1.72331 5.60945,0.47266c0.53463,-0.53462 0.77136,-3.98623 0.77736,-11.35953c0.01,-10.42918 0.53818,-13.63293 1.90236,-11.55485c0.39101,0.59564 0.63463,12.5407 0.64063,31.47309c0.01,30.51399 0.01,30.51773 1.69534,31.84419c2.10205,1.65342 4.12438,1.6857 6.08213,0.1016c1.51088,-1.22262 1.51204,-1.22134 1.83204,-19.84014c0.42731,-24.862 1.48948,-24.9088 1.91801,-0.082c0.34953,20.25252 0.31737,20.0872 4.17974,20.85967c1.40954,0.28191 2.38831,0.018 3.67193,-0.99221c1.74972,-1.3765 1.74782,-1.37708 1.75782,-31.89107c0.006,-16.78268 0.26307,-30.90985 0.57033,-31.39496c1.49838,-2.36563 1.98049,0.32484 1.98049,11.0314c0,12.07808 0.1416,12.57049 3.62505,12.57049c3.32285,0 3.53045,-1.01533 3.30083,-16.25023c-0.20357,-13.50545 -0.21607,-13.62403 -1.90627,-16.176c-2.77452,-4.18911 -5.13609,-4.96139 -16.00022,-5.22273c-2.922,-0.0703 -5.3678,-0.0758 -7.44151,0l-0.00002,-0.00004zm-60.05162,5.00788c-11.29399,0 -11.29464,0.00066 -13.31659,2.14456c-1.64361,1.74273 -2.70586,4.36108 -5.67586,13.99238c-2.00953,6.51664 -3.65239,12.37138 -3.65239,13.008c0,2.79895 3.62382,4.45155 5.92195,2.69925c0.81014,-0.61771 6.8751,-18.99569 6.8751,-20.83232c0,-0.21255 0.27163,-0.11174 0.60157,0.22266c0.37428,0.37934 -1.15181,6.92478 -4.05865,17.40649l-4.66022,16.80103l4.37896,0l4.37897,0l0,12.80095c0,11.94683 0.0866,12.88364 1.28127,14.07832c1.53442,1.53442 3.6771,1.64408 5.61727,0.28516c1.391,-0.97431 1.42189,-1.28336 1.42189,-14.07833c0,-11.20348 0.1389,-13.0861 0.96095,-13.0861c0.82129,0 0.96095,1.84842 0.96095,12.77751c0,12.31797 0.0479,12.82008 1.39846,14.07832c1.87236,1.74438 4.0759,1.64686 5.98836,-0.26563c1.56074,-1.56072 1.57034,-1.65412 1.57034,-14.08223c0,-12.50925 0.00015,-12.50797 4.16021,-12.50797c2.28803,0 4.16022,-0.0826 4.16022,-0.18361c0,-0.101 -2.0142,-7.51754 -4.47663,-16.4807c-2.46242,-8.96315 -4.47861,-16.71249 -4.48053,-17.22289c-0.008,-2.41635 1.39987,1.05843 3.87115,9.56654c1.48253,5.10407 3.13554,9.78648 3.67192,10.40248c1.10196,1.26555 2.82907,1.43495 4.65632,0.45704c1.98111,-1.06026 1.52617,-4.39432 -2.27347,-16.61742c-3.07257,-9.88414 -3.74584,-11.4458 -5.73446,-13.28143c-2.25337,-2.08003 -2.25307,-2.08206 -13.54706,-2.08206zm-82.25504,18.92604c-1.08277,-0.10794 -2.2343,0.0536 -3.38677,0.53517c-2.74987,1.14896 -4.20709,3.29158 -4.20709,6.1954c0,2.55306 1.87131,5.46304 4.0899,6.35946c4.73514,1.91321 9.30899,-1.12606 9.33607,-6.20321c0.0203,-3.81081 -2.5838,-6.56297 -5.83211,-6.88682zm116.56021,0.14063c-1.54196,0.004 -3.08827,0.33737 -4.10554,1.00392c-3.79538,2.48685 -3.48815,8.90525 0.54299,11.36343c2.50993,1.53053 4.64736,1.52551 7.1876,-0.0234c3.93867,-2.40166 4.20362,-8.9098 0.46484,-11.35953c-1.00967,-0.66156 -2.54793,-0.98817 -4.08989,-0.98439l0,-0.00003zm-0.1016,15.4963c-7.50514,0 -7.50275,-0.002 -9.06263,2.07816c-2.10787,2.81072 -6.991,15.30272 -6.72276,17.19945c0.17213,1.21707 0.60183,1.52346 2.13675,1.52346c1.83184,0 1.99698,-0.23625 3.61724,-5.12115c1.69828,-5.12008 1.70015,-5.1218 1.9219,8.21103c0.20488,12.31731 0.31325,13.40419 1.46096,14.2424c1.64885,1.20429 3.51403,1.14667 4.94929,-0.1524c0.99022,-0.8961 1.16798,-2.07839 1.16798,-7.67981c0,-3.98726 0.25518,-6.62117 0.64065,-6.62117c0.3847,0 0.64063,2.59477 0.64063,6.50789c0,5.15921 0.21912,6.75221 1.05859,7.6798c1.18792,1.31266 2.89654,1.4956 4.74227,0.50781c1.16487,-0.62345 1.24285,-1.50012 1.28125,-14.87911c0.0408,-14.21767 0.0416,-14.21753 2.15239,-8.77746c2.14261,5.52196 3.30461,6.66301 5.19538,5.09381c0.5111,-0.42416 0.92971,-1.30963 0.92971,-1.96876c0,-2.24498 -5.87588,-15.9334 -7.25402,-16.89868c-1.00462,-0.70366 -3.27091,-0.94533 -8.85558,-0.94533l0,0.00006zm-130.36505,105.20076c0.0136,0.0548 0.026,0.1082 0.0391,0.164l0.34766,0c-0.003,-0.0488 -0.005,-0.1194 -0.008,-0.164l-0.37876,0zm-66.52046,0.0704l-10.04701,0.012l10.05092,0.012c-0.00015,-0.008 -0.004,-0.016 -0.004,-0.0234l0.00009,-0.0006z" id="path117"/>
  </g>
 </g>
</svg>